<?xml version="1.0" encoding="UTF-8" standalone="no"?>
<!-- Created with Inkscape (http://www.inkscape.org/) -->

<svg
   xmlns:dc="http://purl.org/dc/elements/1.1/"
   xmlns:cc="http://creativecommons.org/ns#"
   xmlns:rdf="http://www.w3.org/1999/02/22-rdf-syntax-ns#"
   xmlns:svg="http://www.w3.org/2000/svg"
   xmlns="http://www.w3.org/2000/svg"
   xmlns:xlink="http://www.w3.org/1999/xlink"
   xmlns:sodipodi="http://sodipodi.sourceforge.net/DTD/sodipodi-0.dtd"
   xmlns:inkscape="http://www.inkscape.org/namespaces/inkscape"
   width="210mm"
   height="297mm"
   id="svg2"
   sodipodi:version="0.32"
   inkscape:version="0.92.2 2405546, 2018-03-11"
   sodipodi:docname="puzzle-laser.svg"
   inkscape:output_extension="org.inkscape.output.svg.inkscape"
   version="1.1"
   viewBox="0 0 744.09449 1052.3622">
  <defs
     id="defs4">
    <inkscape:perspective
       sodipodi:type="inkscape:persp3d"
       inkscape:vp_x="0 : 526.1811 : 1"
       inkscape:vp_y="0 : 1000 : 0"
       inkscape:vp_z="744.09446 : 526.1811 : 1"
       inkscape:persp3d-origin="372.04723 : 350.7874 : 1"
       id="perspective10" />
  </defs>
  <sodipodi:namedview
     id="base"
     pagecolor="#ffffff"
     bordercolor="#666666"
     borderopacity="1.0"
     inkscape:pageopacity="0.0"
     inkscape:pageshadow="2"
     inkscape:zoom="0.9899495"
     inkscape:cx="308.27188"
     inkscape:cy="625.42638"
     inkscape:document-units="px"
     inkscape:current-layer="layer2"
     showgrid="false"
     inkscape:window-width="1680"
     inkscape:window-height="986"
     inkscape:window-x="0"
     inkscape:window-y="27"
     inkscape:snap-others="false"
     inkscape:snap-nodes="false"
     inkscape:snap-global="false"
     inkscape:window-maximized="1" />
  <metadata
     id="metadata7">
    <rdf:RDF>
      <cc:Work
         rdf:about="">
        <dc:format>image/svg+xml</dc:format>
        <dc:type
           rdf:resource="http://purl.org/dc/dcmitype/StillImage" />
        <dc:title></dc:title>
      </cc:Work>
    </rdf:RDF>
  </metadata>
  <g
     inkscape:label="Calque 1"
     inkscape:groupmode="layer"
     id="layer1"
     sodipodi:insensitive="true"
     style="display:none;opacity:0.35">
    <image
       sodipodi:absref="/home/clabaut/Sync/éléphant.jpg"
       xlink:href="éléphant.jpg"
       y="94.709625"
       x="-15.794058"
       id="image4578"
       style="stroke-width:0.38262349;image-rendering:optimizeQuality"
       preserveAspectRatio="none"
       height="1064.9642"
       width="800.11224" />
  </g>
  <g
     inkscape:groupmode="layer"
     id="layer2"
     inkscape:label="éléphant"
     style="display:inline">
    <path
       style="color:#000000;font-style:normal;font-variant:normal;font-weight:normal;font-stretch:normal;font-size:medium;line-height:normal;font-family:sans-serif;font-variant-ligatures:normal;font-variant-position:normal;font-variant-caps:normal;font-variant-numeric:normal;font-variant-alternates:normal;font-feature-settings:normal;text-indent:0;text-align:start;text-decoration:none;text-decoration-line:none;text-decoration-style:solid;text-decoration-color:#000000;letter-spacing:normal;word-spacing:normal;text-transform:none;writing-mode:lr-tb;direction:ltr;text-orientation:mixed;dominant-baseline:auto;baseline-shift:baseline;text-anchor:start;white-space:normal;shape-padding:0;clip-rule:nonzero;display:inline;overflow:visible;visibility:visible;opacity:1;isolation:auto;mix-blend-mode:normal;color-interpolation:sRGB;color-interpolation-filters:linearRGB;solid-color:#000000;solid-opacity:1;vector-effect:none;fill:#000000;fill-opacity:1;fill-rule:nonzero;stroke:none;stroke-width:7.79527569;stroke-linecap:round;stroke-linejoin:round;stroke-miterlimit:4;stroke-dasharray:none;stroke-dashoffset:0;stroke-opacity:1;color-rendering:auto;image-rendering:auto;shape-rendering:auto;text-rendering:auto;enable-background:accumulate"
       d="m 534.72852,246.62305 a 3.8980276,3.8980276 0 0 0 -2.97657,1.2207 c 0,0 -2.76071,2.92746 -5.99023,5.94922 -1.61476,1.51088 -3.34535,3.03921 -4.81836,4.17773 -1.47301,1.13853 -2.99043,1.81644 -2.64844,1.73438 0.26529,-0.0637 -0.86326,-0.002 -2.2168,-0.35938 -1.35353,-0.35709 -3.01591,-0.96618 -4.57812,-1.61914 -3.12441,-1.30591 -5.81055,-2.74414 -5.81055,-2.74414 a 3.8980276,3.8980276 0 0 0 -4.9707,5.76172 c 0,0 12.51306,17.06119 17.04102,32.2207 1.78433,5.97393 3.58112,20.54155 3.61132,36.56446 0.0302,16.0229 -1.63678,33.80059 -6.02148,47.00976 -4.20195,12.65866 -10.1203,26.23813 -16.68164,36.63477 -6.56134,10.39663 -13.92111,17.06583 -19.16406,17.6875 -7.00933,0.83111 -10.52062,-0.0677 -13.82227,-2.24219 -3.30165,-2.17447 -6.5585,-6.18724 -11.31445,-11.80664 -4.10859,-4.85451 -7.22275,-12.27473 -10.5625,-19.9082 -3.33976,-7.63347 -6.91837,-15.54603 -13.14453,-21.20703 -11.04915,-10.04621 -27.75733,-22.84865 -46.33008,-26.52735 -19.12161,-3.78738 -35.97193,6.88416 -45.58985,13.82422 a 3.8980276,3.8980276 0 1 0 4.5625,6.32031 c 9.13031,-6.5882 24.07137,-15.55628 39.51172,-12.49804 15.98925,3.16698 32.04949,15.05613 42.60157,24.65039 4.57446,4.15923 7.96477,11.05813 11.24804,18.5625 3.28327,7.50436 6.44566,15.5487 11.75196,21.81836 4.65891,5.50475 8.12876,10.08914 12.97851,13.2832 4.84976,3.19406 10.91579,4.43446 19.02735,3.47266 9.87792,-1.17125 17.77778,-10.08259 24.83789,-21.26954 7.0601,-11.18694 13.12485,-25.19471 17.48828,-38.33984 4.84678,-14.60124 6.44917,-32.92505 6.41797,-49.48047 -0.0312,-16.55541 -1.62682,-31.04316 -3.9375,-38.77929 -2.59172,-8.67704 -7.15898,-17.33845 -11.08204,-23.83985 1.88735,0.4973 3.68643,0.93779 5.9668,0.39063 2.37985,-0.57103 3.80373,-1.75992 5.59766,-3.14649 0.89592,-0.69248 1.78179,-1.53665 2.68554,-2.32422 -0.37223,2.79485 -0.65329,5.70192 -0.61914,8.55274 0.1101,9.18505 1.77345,23.30154 5.74024,33.20508 3.0198,7.53926 5.28552,28.97469 4.74023,38.50585 -0.31122,5.43976 -0.35905,15.79375 -1.52734,27.52149 -1.16829,11.72774 -3.49532,24.70658 -8.01172,34.63281 -4.75957,10.46066 -10.88666,22.10013 -17.52734,31.99805 -6.64068,9.89791 -13.9316,18.00189 -20.15235,21.46484 -6.39411,3.55945 -12.57946,3.85033 -18.45312,3.74414 -2.93684,-0.0531 -5.75736,-0.22761 -8.52149,-0.0469 -2.76412,0.18074 -5.65278,0.73026 -8.11718,2.63672 -4.2523,3.28955 -6.25332,8.14219 -8.60547,13.01758 -2.35216,4.87538 -4.89878,9.91562 -8.94336,14.14062 -3.61969,3.78116 -11.94313,8.00731 -20.35742,10.85156 -8.4143,2.84425 -17.22136,4.47811 -21.03907,4.42969 -9.59369,-0.12166 -15.54101,-0.36523 -15.54101,-0.36523 a 3.8980276,3.8980276 0 1 0 -0.31641,7.78906 c 0,0 6.07343,0.24828 15.75781,0.37109 5.82132,0.0738 14.6019,-1.78584 23.63672,-4.83984 9.03482,-3.05401 18.02307,-7.13261 23.49219,-12.84571 5.04425,-5.26926 7.94932,-11.20987 10.33008,-16.14453 2.38075,-4.93466 4.39232,-8.7196 6.35547,-10.23828 0.64332,-0.49767 1.81917,-0.89029 3.85547,-1.02343 2.03629,-0.13315 4.75236,0.006 7.87304,0.0625 6.24137,0.11283 14.25095,-0.19758 22.38672,-4.72657 8.30914,-4.62551 15.85476,-13.53398 22.83203,-23.93359 6.97728,-10.39961 13.25054,-22.3443 18.15039,-33.11328 5.14301,-11.30341 7.46097,-24.9323 8.67188,-37.08789 1.21091,-12.1556 1.27492,-22.95979 1.55469,-27.84961 0.63664,-11.12798 -1.0929,-31.3783 -5.28711,-41.84961 -3.2472,-8.10701 -5.08285,-22.15815 -5.18164,-30.40039 -0.0932,-7.77411 2.77734,-18.73242 2.77734,-18.73242 a 3.8980276,3.8980276 0 0 0 -3.62109,-4.91797 z"
       id="path4582"
       inkscape:connector-curvature="0" />
    <path
       style="color:#000000;font-style:normal;font-variant:normal;font-weight:normal;font-stretch:normal;font-size:medium;line-height:normal;font-family:sans-serif;font-variant-ligatures:normal;font-variant-position:normal;font-variant-caps:normal;font-variant-numeric:normal;font-variant-alternates:normal;font-feature-settings:normal;text-indent:0;text-align:start;text-decoration:none;text-decoration-line:none;text-decoration-style:solid;text-decoration-color:#000000;letter-spacing:normal;word-spacing:normal;text-transform:none;writing-mode:lr-tb;direction:ltr;text-orientation:mixed;dominant-baseline:auto;baseline-shift:baseline;text-anchor:start;white-space:normal;shape-padding:0;clip-rule:nonzero;display:inline;overflow:visible;visibility:visible;opacity:1;isolation:auto;mix-blend-mode:normal;color-interpolation:sRGB;color-interpolation-filters:linearRGB;solid-color:#000000;solid-opacity:1;vector-effect:none;fill:#000000;fill-opacity:1;fill-rule:nonzero;stroke:none;stroke-width:7.79527569;stroke-linecap:round;stroke-linejoin:round;stroke-miterlimit:4;stroke-dasharray:none;stroke-dashoffset:0;stroke-opacity:1;color-rendering:auto;image-rendering:auto;shape-rendering:auto;text-rendering:auto;enable-background:accumulate"
       d="m 405.625,434.82031 a 3.8980276,3.8980276 0 0 0 -0.15039,0.0137 c -2.15981,0.23847 -6.07304,0.20986 -10.17969,1.96875 -4.10664,1.7589 -8.17923,5.58119 -10.53711,12.10743 -4.502,12.46086 -2.2367,21.58245 2.46094,26.02343 2.82518,2.67086 6.63616,6.41796 15.40625,7.81641 3.79677,0.60543 7.0496,1.59612 10.85156,1.41602 3.80196,-0.18011 7.78925,-2.04914 11.29883,-5.93164 6.18444,-6.8416 7.87485,-12.35872 9.0918,-18.86915 a 3.8980276,3.8980276 0 0 0 0.0625,-0.54492 c 0.36272,-8.29262 -3.97939,-13.51334 -6.07422,-15.66406 -3.02145,-3.10203 -6.81055,-4.67578 -6.81055,-4.67578 a 3.8980276,3.8980276 0 0 0 -0.0762,-0.0332 c -3.9976,-1.69861 -9.54893,-4.04251 -15.34375,-3.62696 z m 0.56445,7.77735 c 3.00447,-0.21263 7.94496,1.42276 11.6836,3.00781 0.0519,0.0258 2.8893,1.4389 4.39843,2.98828 1.73636,1.78268 4.04126,4.16842 3.85938,9.70117 -1.11641,5.93672 -1.85721,8.87238 -7.13672,14.71289 -2.58993,2.86513 -3.90276,3.27711 -5.88672,3.3711 -1.98395,0.094 -5.00312,-0.64804 -9.25586,-1.32618 -7.32895,-1.16865 -8.11322,-2.79007 -11.27929,-5.7832 -1.29364,-1.22296 -4.25411,-7.2715 -0.48243,-17.71094 1.77898,-4.92391 3.93155,-6.5868 6.27344,-7.58984 2.30247,-0.98616 5.00965,-1.06765 7.82617,-1.37109 z"
       id="path4584"
       inkscape:connector-curvature="0" />
    <path
       style="color:#000000;font-style:normal;font-variant:normal;font-weight:normal;font-stretch:normal;font-size:medium;line-height:normal;font-family:sans-serif;font-variant-ligatures:normal;font-variant-position:normal;font-variant-caps:normal;font-variant-numeric:normal;font-variant-alternates:normal;font-feature-settings:normal;text-indent:0;text-align:start;text-decoration:none;text-decoration-line:none;text-decoration-style:solid;text-decoration-color:#000000;letter-spacing:normal;word-spacing:normal;text-transform:none;writing-mode:lr-tb;direction:ltr;text-orientation:mixed;dominant-baseline:auto;baseline-shift:baseline;text-anchor:start;white-space:normal;shape-padding:0;clip-rule:nonzero;display:inline;overflow:visible;visibility:visible;opacity:1;isolation:auto;mix-blend-mode:normal;color-interpolation:sRGB;color-interpolation-filters:linearRGB;solid-color:#000000;solid-opacity:1;vector-effect:none;fill:#000000;fill-opacity:1;fill-rule:nonzero;stroke:none;stroke-width:7.79527569;stroke-linecap:round;stroke-linejoin:round;stroke-miterlimit:4;stroke-dasharray:none;stroke-dashoffset:0;stroke-opacity:1;color-rendering:auto;image-rendering:auto;shape-rendering:auto;text-rendering:auto;enable-background:accumulate"
       d="m 427.97461,405.4375 c -1.34657,-0.14198 -2.76644,0.0122 -4.01953,0.62695 -2.78601,1.36688 -4.18953,3.97632 -4.81446,6.57227 -0.62492,2.59595 -0.52123,5.41946 0.42383,8.14844 0.63993,1.84787 1.31888,4.21583 2.3418,6.50586 1.02292,2.29002 2.37937,4.86285 5.44336,6.14648 2.08454,0.87329 4.67728,1.46606 7.58984,0.85547 2.91256,-0.61059 6.06398,-3.15364 7.01172,-6.88281 1.30306,-5.12721 0.5487,-12.33087 -5.14844,-16.82032 -1.85681,-1.47445 -3.33044,-2.87229 -5.24804,-4.00586 -0.96062,-0.56785 -2.23351,-1.0045 -3.58008,-1.14648 z m -0.58594,7.625 c 0.19882,-0.0976 -0.57972,-0.22804 0.19922,0.23242 0.77894,0.46046 2.31253,1.76831 4.37891,3.4082 a 3.8980276,3.8980276 0 0 0 0.01,0.01 c 2.37066,1.86738 3.01701,6.42798 2.41992,8.77734 -0.31992,1.25883 -0.36073,1.02794 -1.05664,1.17383 -0.69591,0.14589 -2.12843,-0.0599 -2.97851,-0.41601 0.12937,0.0542 -0.63274,-0.5581 -1.33789,-2.13672 -0.70515,-1.57862 -1.36223,-3.76459 -2.09375,-5.87695 -0.4264,-1.23128 -0.4632,-2.71745 -0.20899,-3.77344 0.25421,-1.056 0.74898,-1.43818 0.66797,-1.39844 z"
       id="path4586"
       inkscape:connector-curvature="0" />
    <path
       style="color:#000000;font-style:normal;font-variant:normal;font-weight:normal;font-stretch:normal;font-size:medium;line-height:normal;font-family:sans-serif;font-variant-ligatures:normal;font-variant-position:normal;font-variant-caps:normal;font-variant-numeric:normal;font-variant-alternates:normal;font-feature-settings:normal;text-indent:0;text-align:start;text-decoration:none;text-decoration-line:none;text-decoration-style:solid;text-decoration-color:#000000;letter-spacing:normal;word-spacing:normal;text-transform:none;writing-mode:lr-tb;direction:ltr;text-orientation:mixed;dominant-baseline:auto;baseline-shift:baseline;text-anchor:start;white-space:normal;shape-padding:0;clip-rule:nonzero;display:inline;overflow:visible;visibility:visible;opacity:1;isolation:auto;mix-blend-mode:normal;color-interpolation:sRGB;color-interpolation-filters:linearRGB;solid-color:#000000;solid-opacity:1;vector-effect:none;fill:#000000;fill-opacity:1;fill-rule:nonzero;stroke:none;stroke-width:7.79527569;stroke-linecap:round;stroke-linejoin:round;stroke-miterlimit:4;stroke-dasharray:none;stroke-dashoffset:0;stroke-opacity:1;color-rendering:auto;image-rendering:auto;shape-rendering:auto;text-rendering:auto;enable-background:accumulate"
       d="m 296.17969,341.76367 c -6.50832,-0.24843 -13.68022,1.19502 -20.57813,3.99024 -9.19721,3.72695 -17.94277,9.95825 -23.26562,18.71289 -5.38775,8.86138 -7.36017,22.63436 -7.95313,36.45117 -0.59295,13.8168 0.39449,27.38306 2.47461,35.66211 2.14185,8.52478 7.80718,17.87559 13.92774,26.76367 6.12055,8.88808 12.76717,17.21223 16.875,22.70898 9.68743,12.96291 13.74499,22.37641 16.32226,29.51172 2.57727,7.13531 3.50377,12.60189 8.08985,16.75586 3.36651,3.04932 8.32824,7.60949 15.53906,10.42188 7.21082,2.81238 16.64691,3.74288 28.42187,0.1875 12.25029,-3.69892 26.75746,-6.98259 33.50586,-19.81055 6.17649,-11.74084 5.91465,-22.26888 1.33985,-29.94336 a 3.8980276,3.8980276 0 1 0 -6.69532,3.99219 c 3.1199,5.2338 3.7534,12.25444 -1.54297,22.32226 -4.78643,9.09848 -16.33707,12.19492 -28.86132,15.97657 -10.35697,3.12722 -17.65682,2.22866 -23.33594,0.0137 -5.67912,-2.21499 -9.76141,-5.8804 -13.13867,-8.93945 -2.15771,-1.9544 -3.2611,-6.06924 -5.99024,-13.625 -2.72914,-7.55577 -7.25335,-17.9429 -17.4082,-31.53125 -4.25849,-5.69836 -10.78811,-13.87614 -16.70117,-22.46289 -5.91306,-8.58676 -11.13919,-17.68331 -12.78711,-24.24219 -1.70966,-6.80461 -2.81229,-20.23248 -2.24609,-33.42578 0.56619,-13.19331 3.00273,-26.44781 6.82617,-32.73633 4.18287,-6.87969 11.57063,-12.31321 19.53125,-15.53906 7.96062,-3.22586 16.46051,-4.14266 22.10547,-2.80469 a 3.8980276,3.8980276 0 0 0 0.92578,0.10547 c 11.49045,-0.0832 29.02637,12.16314 36.94531,18.85156 a 3.8980276,3.8980276 0 1 0 5.03125,-5.95508 c -8.32644,-7.0326 -25.33279,-20.51551 -41.57422,-20.65039 -1.85346,-0.40805 -3.77645,-0.68512 -5.7832,-0.76172 z"
       id="path4588"
       inkscape:connector-curvature="0" />
    <path
       style="color:#000000;font-style:normal;font-variant:normal;font-weight:normal;font-stretch:normal;font-size:medium;line-height:normal;font-family:sans-serif;font-variant-ligatures:normal;font-variant-position:normal;font-variant-caps:normal;font-variant-numeric:normal;font-variant-alternates:normal;font-feature-settings:normal;text-indent:0;text-align:start;text-decoration:none;text-decoration-line:none;text-decoration-style:solid;text-decoration-color:#000000;letter-spacing:normal;word-spacing:normal;text-transform:none;writing-mode:lr-tb;direction:ltr;text-orientation:mixed;dominant-baseline:auto;baseline-shift:baseline;text-anchor:start;white-space:normal;shape-padding:0;clip-rule:nonzero;display:inline;overflow:visible;visibility:visible;opacity:1;isolation:auto;mix-blend-mode:normal;color-interpolation:sRGB;color-interpolation-filters:linearRGB;solid-color:#000000;solid-opacity:1;vector-effect:none;fill:#000000;fill-opacity:1;fill-rule:nonzero;stroke:none;stroke-width:7.79527569;stroke-linecap:round;stroke-linejoin:round;stroke-miterlimit:4;stroke-dasharray:none;stroke-dashoffset:0;stroke-opacity:1;color-rendering:auto;image-rendering:auto;shape-rendering:auto;text-rendering:auto;enable-background:accumulate"
       d="m 288.78125,358.87305 c -4.34554,0.28843 -7.46541,-0.22567 -11.38867,0.89257 -3.92327,1.11825 -7.55097,3.85846 -12.42383,9.35743 -6.21235,7.01054 -7.44006,18.99448 -7.44336,31.54687 -0.003,12.55239 1.75753,25.51578 4.43945,34.02735 2.70273,8.57756 8.28145,18.05776 13.74219,26.79492 5.46074,8.73716 10.87535,16.83074 12.95117,21.21484 2.28696,4.83003 5.39416,12.47699 10.35547,19.31445 4.96132,6.83747 12.13582,13.08899 22.17578,14.16993 10.09657,1.08702 17.62787,-0.57305 23.22461,-4.28516 5.59675,-3.71211 8.98067,-9.14265 11.8086,-14.73047 3.01386,-5.95521 3.90606,-11.89606 4.06836,-16.36328 0.0811,-2.23361 -0.0223,-4.10424 -0.1543,-5.45312 -0.066,-0.67445 -0.13905,-1.21634 -0.20313,-1.6211 -0.032,-0.20238 -0.0608,-0.3663 -0.0918,-0.52148 -0.0155,-0.0776 -0.0296,-0.14592 -0.0586,-0.26368 -0.0145,-0.0589 -0.0265,-0.11983 -0.0781,-0.28124 -0.0258,-0.0807 -0.0505,-0.17416 -0.16016,-0.41797 -0.0548,-0.12191 -0.32395,-0.58163 -0.32422,-0.58203 -2.7e-4,-4.1e-4 -2.04471,-1.53314 -2.04492,-1.53321 a 3.8980276,3.8980276 0 0 0 -4.92383,4.95508 c 0.0368,0.24428 0.082,0.56535 0.12696,1.02539 0.10202,1.04283 0.18768,2.57716 0.12109,4.41016 -0.13318,3.66599 -0.89024,8.49894 -3.23242,13.12695 -2.60516,5.14764 -5.29538,9.18926 -9.16211,11.75391 -3.86673,2.56465 -9.18643,3.98702 -18.08203,3.02929 -7.29944,-0.78588 -12.4682,-5.16509 -16.69922,-10.99609 -4.23102,-5.83101 -7.16723,-12.88974 -9.6211,-18.07227 -2.66499,-5.62842 -8.02001,-13.42619 -13.38476,-22.00976 -5.36475,-8.58357 -10.66621,-17.85332 -12.91992,-25.00586 -2.27451,-7.21854 -4.08123,-19.89435 -4.07813,-31.68359 0.003,-11.78925 2.35455,-22.84916 5.48242,-26.37891 4.46736,-5.04136 6.74504,-6.4645 8.72657,-7.0293 1.98152,-0.56479 4.76732,-0.28126 9.76953,-0.61328 7.85522,-0.52138 24.44513,3.60027 35.4082,11.55469 a 3.8981507,3.8981507 0 1 0 4.57813,-6.31055 c -12.78429,-9.27583 -29.66364,-13.741 -40.50391,-13.02148 z"
       id="path4590"
       inkscape:connector-curvature="0" />
    <path
       style="color:#000000;font-style:normal;font-variant:normal;font-weight:normal;font-stretch:normal;font-size:medium;line-height:normal;font-family:sans-serif;font-variant-ligatures:normal;font-variant-position:normal;font-variant-caps:normal;font-variant-numeric:normal;font-variant-alternates:normal;font-feature-settings:normal;text-indent:0;text-align:start;text-decoration:none;text-decoration-line:none;text-decoration-style:solid;text-decoration-color:#000000;letter-spacing:normal;word-spacing:normal;text-transform:none;writing-mode:lr-tb;direction:ltr;text-orientation:mixed;dominant-baseline:auto;baseline-shift:baseline;text-anchor:start;white-space:normal;shape-padding:0;clip-rule:nonzero;display:inline;overflow:visible;visibility:visible;opacity:1;isolation:auto;mix-blend-mode:normal;color-interpolation:sRGB;color-interpolation-filters:linearRGB;solid-color:#000000;solid-opacity:1;vector-effect:none;fill:#000000;fill-opacity:1;fill-rule:nonzero;stroke:none;stroke-width:7.79527569;stroke-linecap:round;stroke-linejoin:round;stroke-miterlimit:4;stroke-dasharray:none;stroke-dashoffset:0;stroke-opacity:1;color-rendering:auto;image-rendering:auto;shape-rendering:auto;text-rendering:auto;enable-background:accumulate"
       d="m 333.92383,402.32422 a 3.8980276,3.8980276 0 0 0 -4.0293,3.76172 c -0.36417,7.43161 -0.74561,10.91442 -0.72461,13.82226 0.021,2.90785 0.65963,5.17512 1.88477,8.29297 2.51344,6.39643 4.89258,9.33789 4.89258,9.33789 a 3.8980276,3.8980276 0 0 0 0.57812,0.55469 l 0.12891,0.0996 a 3.8980276,3.8980276 0 0 0 4.13672,0.41016 l 0.3164,-0.15821 a 3.8980276,3.8980276 0 0 0 0.10938,-6.96289 c -0.57664,-0.88601 -1.45893,-2.44262 -2.90821,-6.13086 -1.15246,-2.9329 -1.32872,-3.41763 -1.34375,-5.49804 -0.015,-2.08042 0.34607,-5.82112 0.7168,-13.38672 a 3.8980276,3.8980276 0 0 0 -3.75781,-4.14258 z m 5.57812,28.20898 0.77735,0.60352 a 3.8980276,3.8980276 0 0 0 -2.65821,0.33594 z"
       id="path4592"
       inkscape:connector-curvature="0" />
    <path
       style="color:#000000;font-style:normal;font-variant:normal;font-weight:normal;font-stretch:normal;font-size:medium;line-height:normal;font-family:sans-serif;font-variant-ligatures:normal;font-variant-position:normal;font-variant-caps:normal;font-variant-numeric:normal;font-variant-alternates:normal;font-feature-settings:normal;text-indent:0;text-align:start;text-decoration:none;text-decoration-line:none;text-decoration-style:solid;text-decoration-color:#000000;letter-spacing:normal;word-spacing:normal;text-transform:none;writing-mode:lr-tb;direction:ltr;text-orientation:mixed;dominant-baseline:auto;baseline-shift:baseline;text-anchor:start;white-space:normal;shape-padding:0;clip-rule:nonzero;display:inline;overflow:visible;visibility:visible;opacity:1;isolation:auto;mix-blend-mode:normal;color-interpolation:sRGB;color-interpolation-filters:linearRGB;solid-color:#000000;solid-opacity:1;vector-effect:none;fill:#000000;fill-opacity:1;fill-rule:nonzero;stroke:none;stroke-width:7.79527569;stroke-linecap:round;stroke-linejoin:round;stroke-miterlimit:4;stroke-dasharray:none;stroke-dashoffset:0;stroke-opacity:1;color-rendering:auto;image-rendering:auto;shape-rendering:auto;text-rendering:auto;enable-background:accumulate"
       d="m 313.82812,416.56055 c -3.83997,0.066 -7.14368,2.04416 -10.60937,4.85547 a 3.8980276,3.8980276 0 1 0 4.91211,6.05273 c 2.87461,-2.33184 4.85193,-3.0984 5.83203,-3.11523 0.9801,-0.0168 1.90751,0.31057 3.75195,2.56836 a 3.8980276,3.8980276 0 1 0 6.03711,-4.93165 c -2.65142,-3.24561 -6.08385,-5.49566 -9.92383,-5.42968 z"
       id="path4594"
       inkscape:connector-curvature="0" />
    <path
       style="color:#000000;font-style:normal;font-variant:normal;font-weight:normal;font-stretch:normal;font-size:medium;line-height:normal;font-family:sans-serif;font-variant-ligatures:normal;font-variant-position:normal;font-variant-caps:normal;font-variant-numeric:normal;font-variant-alternates:normal;font-feature-settings:normal;text-indent:0;text-align:start;text-decoration:none;text-decoration-line:none;text-decoration-style:solid;text-decoration-color:#000000;letter-spacing:normal;word-spacing:normal;text-transform:none;writing-mode:lr-tb;direction:ltr;text-orientation:mixed;dominant-baseline:auto;baseline-shift:baseline;text-anchor:start;white-space:normal;shape-padding:0;clip-rule:nonzero;display:inline;overflow:visible;visibility:visible;opacity:1;isolation:auto;mix-blend-mode:normal;color-interpolation:sRGB;color-interpolation-filters:linearRGB;solid-color:#000000;solid-opacity:1;vector-effect:none;fill:#000000;fill-opacity:1;fill-rule:nonzero;stroke:none;stroke-width:7.79527569;stroke-linecap:round;stroke-linejoin:round;stroke-miterlimit:4;stroke-dasharray:none;stroke-dashoffset:0;stroke-opacity:1;color-rendering:auto;image-rendering:auto;shape-rendering:auto;text-rendering:auto;enable-background:accumulate"
       d="m 326.25391,432.95898 a 3.8980276,3.8980276 0 0 0 -3.46485,1.94727 c -2.53427,4.24723 -3.74223,6.55654 -4.39062,8.00195 -0.3242,0.72271 -0.51575,1.21307 -0.65625,1.80078 -0.0703,0.29386 -0.13648,0.61413 -0.13477,1.09961 8.6e-4,0.24275 0.0199,0.5316 0.0996,0.88282 0.0399,0.1756 0.0954,0.36614 0.17578,0.57031 0.0804,0.20416 0.32422,0.64062 0.32422,0.64062 a 3.8980276,3.8980276 0 0 0 7.20313,-1.57617 c 0.024,-0.0667 -0.0126,0.0236 0.0996,-0.22656 0.41793,-0.93167 1.52307,-3.09065 3.97461,-7.19922 a 3.8980276,3.8980276 0 0 0 -3.23047,-5.94141 z"
       id="path4596"
       inkscape:connector-curvature="0" />
    <path
       style="color:#000000;font-style:normal;font-variant:normal;font-weight:normal;font-stretch:normal;font-size:medium;line-height:normal;font-family:sans-serif;font-variant-ligatures:normal;font-variant-position:normal;font-variant-caps:normal;font-variant-numeric:normal;font-variant-alternates:normal;font-feature-settings:normal;text-indent:0;text-align:start;text-decoration:none;text-decoration-line:none;text-decoration-style:solid;text-decoration-color:#000000;letter-spacing:normal;word-spacing:normal;text-transform:none;writing-mode:lr-tb;direction:ltr;text-orientation:mixed;dominant-baseline:auto;baseline-shift:baseline;text-anchor:start;white-space:normal;shape-padding:0;clip-rule:nonzero;display:inline;overflow:visible;visibility:visible;opacity:1;isolation:auto;mix-blend-mode:normal;color-interpolation:sRGB;color-interpolation-filters:linearRGB;solid-color:#000000;solid-opacity:1;vector-effect:none;fill:#000000;fill-opacity:1;fill-rule:nonzero;stroke:none;stroke-width:7.79527569;stroke-linecap:round;stroke-linejoin:round;stroke-miterlimit:4;stroke-dasharray:none;stroke-dashoffset:0;stroke-opacity:1;color-rendering:auto;image-rendering:auto;shape-rendering:auto;text-rendering:auto;enable-background:accumulate"
       d="m 291.64453,501.33789 a 3.8980276,3.8980276 0 0 0 -2.74219,1.02734 c -34.62192,30.95833 -64.62187,51.03483 -84.04296,78.07813 -18.96101,26.40264 -33.22137,50.77231 -39.10547,68.78125 -5.43574,16.63668 -16.07654,34.55987 -14.08985,54.12305 0.94848,9.33961 3.65348,21.75406 9.41797,32.93554 5.76449,11.18149 14.83355,21.30676 28.30859,24.67188 24.37425,6.08696 51.84947,11.07562 82.38868,8.68554 30.32809,-2.37354 54.30661,-8.84507 81.45508,-14.85546 a 3.8980276,3.8980276 0 0 0 3.04687,-3.53711 c 0,0 1.31721,-18.4742 2.9707,-27.00586 1.13128,-5.83707 -0.009,-13.17268 -1.19531,-19.51758 -1.1865,-6.3449 -2.60156,-11.50977 -2.60156,-11.50977 a 3.8980276,3.8980276 0 0 0 -3.46289,-2.85937 c 0,0 -27.78293,-2.19131 -39.88672,-1.51172 -11.08428,0.62233 -22.32329,0.48316 -33.86914,3.52539 -10.18154,2.68276 -19.42185,6.95836 -21.59766,7.98047 -0.75613,-0.27969 -1.41592,-0.49739 -3.13672,-1.25195 -2.46976,-1.08299 -5.39761,-2.65856 -6.52734,-3.62305 -2.87874,-2.4577 -4.70313,-5.97656 -4.70313,-5.97656 a 3.8980276,3.8980276 0 1 0 -6.98632,3.45898 c 0,0 2.25093,4.71128 6.62695,8.44727 2.49765,2.13234 5.70361,3.62294 8.46094,4.83203 2.75733,1.20908 5.04687,2.01367 5.04687,2.01367 a 3.8980276,3.8980276 0 0 0 2.97461,-0.16211 c 0,0 11.46469,-5.45095 21.82813,-8.18164 10.25915,-2.70319 20.90669,-2.63847 32.32031,-3.2793 9.43729,-0.52987 31.59816,1.01014 35.99805,1.32227 0.42497,1.64125 1.00802,3.6857 1.85351,8.20703 1.12137,5.99661 1.84479,13.29073 1.20313,16.60156 -1.62509,8.3851 -2.57446,21.08439 -2.85743,25.04102 -26.12182,5.85278 -49.07751,11.8404 -77.57031,14.07031 -29.33575,2.29589 -55.88178,-2.48085 -79.89062,-8.47656 -10.7165,-2.67623 -18.13672,-10.72921 -23.26758,-20.68164 -5.13086,-9.95244 -7.72638,-21.62866 -8.5918,-30.15039 -1.64104,-16.15953 7.93305,-33.13455 13.74219,-50.91407 5.36078,-16.40724 19.32031,-40.60726 38.02734,-66.65625 18.24695,-25.40832 47.88135,-45.49229 82.91016,-76.81445 a 3.8980276,3.8980276 0 0 0 -2.45508,-6.83789 z"
       id="path4598"
       inkscape:connector-curvature="0" />
    <path
       style="color:#000000;font-style:normal;font-variant:normal;font-weight:normal;font-stretch:normal;font-size:medium;line-height:normal;font-family:sans-serif;font-variant-ligatures:normal;font-variant-position:normal;font-variant-caps:normal;font-variant-numeric:normal;font-variant-alternates:normal;font-feature-settings:normal;text-indent:0;text-align:start;text-decoration:none;text-decoration-line:none;text-decoration-style:solid;text-decoration-color:#000000;letter-spacing:normal;word-spacing:normal;text-transform:none;writing-mode:lr-tb;direction:ltr;text-orientation:mixed;dominant-baseline:auto;baseline-shift:baseline;text-anchor:start;white-space:normal;shape-padding:0;clip-rule:nonzero;display:inline;overflow:visible;visibility:visible;opacity:1;isolation:auto;mix-blend-mode:normal;color-interpolation:sRGB;color-interpolation-filters:linearRGB;solid-color:#000000;solid-opacity:1;vector-effect:none;fill:#000000;fill-opacity:1;fill-rule:nonzero;stroke:none;stroke-width:7.79527569;stroke-linecap:round;stroke-linejoin:round;stroke-miterlimit:4;stroke-dasharray:none;stroke-dashoffset:0;stroke-opacity:1;color-rendering:auto;image-rendering:auto;shape-rendering:auto;text-rendering:auto;enable-background:accumulate"
       d="m 351.73633,690.3457 c 0,0 -6.58701,-0.078 -13.37695,0.71875 -3.39498,0.39838 -6.84143,0.98348 -9.83399,2.08008 -1.49628,0.5483 -2.90181,1.2084 -4.17969,2.2832 -1.27787,1.07481 -2.49012,2.81797 -2.625,4.89844 -0.12676,1.95524 0.72253,3.83031 1.80274,5.07227 1.0802,1.24195 2.35433,2.06501 3.71289,2.76172 2.14154,1.09822 4.60633,1.82188 7.14453,2.42968 -0.51757,0.41944 -1.01499,0.88786 -1.46875,1.46485 -0.96189,1.22313 -1.68835,3.09664 -1.44531,4.97656 0.43763,3.38513 2.93061,5.35493 5.23242,6.64453 1.50289,0.842 3.12467,1.44733 4.76172,1.97461 -2.26274,2.15387 -4.13356,5.05374 -4.43164,8.98438 -0.50172,6.61575 3.26131,11.70128 6.67968,14.89648 3.41838,3.1952 6.94141,4.93555 6.94141,4.93555 a 3.8980276,3.8980276 0 1 0 3.48242,-6.97266 c 0,0 -2.59127,-1.31363 -5.09961,-3.6582 -2.50833,-2.34457 -4.48276,-5.28459 -4.23047,-8.61133 0.25457,-3.3568 2.11421,-4.67496 4.5918,-5.75977 2.47759,-1.0848 4.9961,-1.25781 4.99609,-1.25781 a 3.8980276,3.8980276 0 0 0 0.17579,-7.77148 c 0,0 -4.29476,-0.43791 -8.54102,-1.53907 -2.12313,-0.55057 -4.21238,-1.29024 -5.51758,-2.02148 -0.77985,-0.43692 -0.65128,-0.37226 -0.7832,-0.50391 0.14612,-0.10494 0.12713,-0.12591 0.33398,-0.24414 1.26337,-0.72211 3.48893,-1.50987 5.67188,-2.08203 2.18294,-0.57216 4.34445,-0.97621 5.7207,-1.20898 0.68813,-0.11639 1.13013,-0.18103 1.44727,-0.23438 0.0793,-0.0133 0.0205,0.0158 0.42578,-0.0879 0.0507,-0.013 0.11312,-0.0296 0.2168,-0.0625 0.10367,-0.0329 0.54617,-0.21841 0.54687,-0.21875 7e-4,-3.4e-4 2.08783,-2.67161 2.08789,-2.67187 6e-5,-2.7e-4 -2.63613,-4.54279 -2.63672,-4.54297 -5.8e-4,-1.9e-4 -0.70063,-0.15579 -0.84179,-0.16797 -0.14117,-0.0122 -0.21889,-0.0127 -0.28125,-0.0137 -0.12473,-0.002 -0.18074,0.002 -0.22852,0.004 -0.38221,0.0152 -0.38538,0.0265 -0.62695,0.0488 -0.24315,0.0225 -2.50245,0.0176 -5.05078,-0.20703 -2.54834,-0.22467 -5.63973,-0.62756 -8.52735,-1.2207 -2.88762,-0.59315 -5.59971,-1.42107 -7.18945,-2.23633 -0.26744,-0.13715 -0.27242,-0.18994 -0.4668,-0.31641 0.30838,-0.16105 0.4193,-0.27546 0.88281,-0.44531 1.93841,-0.71031 4.98593,-1.29569 8.0586,-1.65625 6.14532,-0.72111 12.38867,-0.66602 12.38867,-0.66602 a 3.8980276,3.8980276 0 1 0 0.0801,-7.79492 z"
       id="path4620"
       inkscape:connector-curvature="0" />
    <path
       style="color:#000000;font-style:normal;font-variant:normal;font-weight:normal;font-stretch:normal;font-size:medium;line-height:normal;font-family:sans-serif;font-variant-ligatures:normal;font-variant-position:normal;font-variant-caps:normal;font-variant-numeric:normal;font-variant-alternates:normal;font-feature-settings:normal;text-indent:0;text-align:start;text-decoration:none;text-decoration-line:none;text-decoration-style:solid;text-decoration-color:#000000;letter-spacing:normal;word-spacing:normal;text-transform:none;writing-mode:lr-tb;direction:ltr;text-orientation:mixed;dominant-baseline:auto;baseline-shift:baseline;text-anchor:start;white-space:normal;shape-padding:0;clip-rule:nonzero;display:inline;overflow:visible;visibility:visible;opacity:1;isolation:auto;mix-blend-mode:normal;color-interpolation:sRGB;color-interpolation-filters:linearRGB;solid-color:#000000;solid-opacity:1;vector-effect:none;fill:#000000;fill-opacity:1;fill-rule:nonzero;stroke:none;stroke-width:7.79527569;stroke-linecap:round;stroke-linejoin:round;stroke-miterlimit:4;stroke-dasharray:none;stroke-dashoffset:0;stroke-opacity:1;color-rendering:auto;image-rendering:auto;shape-rendering:auto;text-rendering:auto;enable-background:accumulate"
       d="m 262.21484,683.89844 a 3.8980276,3.8980276 0 0 0 -3.43945,2.05078 c 0,0 -0.0745,0.17683 -0.0859,0.19922 l -0.0117,-0.006 -1.44726,3.11719 a 3.8980276,3.8980276 0 0 0 -0.0254,3.32031 c -0.18638,2.47067 -0.0426,5.28375 1.41797,8.30859 a 3.8980276,3.8980276 0 1 0 7.01953,-3.39062 c -1.96916,-4.07806 -0.0351,-7.77471 -0.002,-7.83789 l 0.10743,-0.23438 a 3.8980276,3.8980276 0 0 0 -3.53321,-5.52734 z"
       id="path4622"
       inkscape:connector-curvature="0" />
    <path
       style="color:#000000;font-style:normal;font-variant:normal;font-weight:normal;font-stretch:normal;font-size:medium;line-height:normal;font-family:sans-serif;font-variant-ligatures:normal;font-variant-position:normal;font-variant-caps:normal;font-variant-numeric:normal;font-variant-alternates:normal;font-feature-settings:normal;text-indent:0;text-align:start;text-decoration:none;text-decoration-line:none;text-decoration-style:solid;text-decoration-color:#000000;letter-spacing:normal;word-spacing:normal;text-transform:none;writing-mode:lr-tb;direction:ltr;text-orientation:mixed;dominant-baseline:auto;baseline-shift:baseline;text-anchor:start;white-space:normal;shape-padding:0;clip-rule:nonzero;display:inline;overflow:visible;visibility:visible;opacity:1;isolation:auto;mix-blend-mode:normal;color-interpolation:sRGB;color-interpolation-filters:linearRGB;solid-color:#000000;solid-opacity:1;vector-effect:none;fill:#000000;fill-opacity:1;fill-rule:nonzero;stroke:none;stroke-width:7.79527569;stroke-linecap:round;stroke-linejoin:round;stroke-miterlimit:4;stroke-dasharray:none;stroke-dashoffset:0;stroke-opacity:1;color-rendering:auto;image-rendering:auto;shape-rendering:auto;text-rendering:auto;enable-background:accumulate"
       d="m 268.31641,690.54492 a 3.8980276,3.8980276 0 0 0 -2.07032,7.29102 l 5.50196,3.19922 a 3.8981189,3.8981189 0 1 0 3.91797,-6.74024 l -5.50196,-3.19726 a 3.8980276,3.8980276 0 0 0 -1.84765,-0.55274 z"
       id="path4624"
       inkscape:connector-curvature="0" />
    <path
       style="color:#000000;font-style:normal;font-variant:normal;font-weight:normal;font-stretch:normal;font-size:medium;line-height:normal;font-family:sans-serif;font-variant-ligatures:normal;font-variant-position:normal;font-variant-caps:normal;font-variant-numeric:normal;font-variant-alternates:normal;font-feature-settings:normal;text-indent:0;text-align:start;text-decoration:none;text-decoration-line:none;text-decoration-style:solid;text-decoration-color:#000000;letter-spacing:normal;word-spacing:normal;text-transform:none;writing-mode:lr-tb;direction:ltr;text-orientation:mixed;dominant-baseline:auto;baseline-shift:baseline;text-anchor:start;white-space:normal;shape-padding:0;clip-rule:nonzero;display:inline;overflow:visible;visibility:visible;opacity:1;isolation:auto;mix-blend-mode:normal;color-interpolation:sRGB;color-interpolation-filters:linearRGB;solid-color:#000000;solid-opacity:1;vector-effect:none;fill:#000000;fill-opacity:1;fill-rule:nonzero;stroke:none;stroke-width:7.79527569;stroke-linecap:round;stroke-linejoin:round;stroke-miterlimit:4;stroke-dasharray:none;stroke-dashoffset:0;stroke-opacity:1;color-rendering:auto;image-rendering:auto;shape-rendering:auto;text-rendering:auto;enable-background:accumulate"
       d="m 250.83203,706.23242 a 3.8980276,3.8980276 0 0 0 -0.27344,0.01 c 0,0 -2.3665,0.12367 -5.06836,0.92969 -2.70185,0.80601 -6.33866,2.28015 -8.08984,6.20117 -2.51005,5.6202 -1.17578,10.8457 -1.17578,10.8457 a 3.8980276,3.8980276 0 1 0 7.55273,-1.92773 c 0,0 -0.66239,-2.59769 0.74024,-5.73829 0.20516,-0.45937 1.48089,-1.39891 3.20117,-1.91211 1.72028,-0.51319 3.28516,-0.61523 3.28516,-0.61523 a 3.8980276,3.8980276 0 0 0 -0.17188,-7.79297 z"
       id="path4626"
       inkscape:connector-curvature="0" />
    <path
       style="color:#000000;font-style:normal;font-variant:normal;font-weight:normal;font-stretch:normal;font-size:medium;line-height:normal;font-family:sans-serif;font-variant-ligatures:normal;font-variant-position:normal;font-variant-caps:normal;font-variant-numeric:normal;font-variant-alternates:normal;font-feature-settings:normal;text-indent:0;text-align:start;text-decoration:none;text-decoration-line:none;text-decoration-style:solid;text-decoration-color:#000000;letter-spacing:normal;word-spacing:normal;text-transform:none;writing-mode:lr-tb;direction:ltr;text-orientation:mixed;dominant-baseline:auto;baseline-shift:baseline;text-anchor:start;white-space:normal;shape-padding:0;clip-rule:nonzero;display:inline;overflow:visible;visibility:visible;opacity:1;isolation:auto;mix-blend-mode:normal;color-interpolation:sRGB;color-interpolation-filters:linearRGB;solid-color:#000000;solid-opacity:1;vector-effect:none;fill:#000000;fill-opacity:1;fill-rule:nonzero;stroke:none;stroke-width:7.79527569;stroke-linecap:round;stroke-linejoin:round;stroke-miterlimit:4;stroke-dasharray:none;stroke-dashoffset:0;stroke-opacity:1;color-rendering:auto;image-rendering:auto;shape-rendering:auto;text-rendering:auto;enable-background:accumulate"
       d="m 355.05859,629.08984 a 3.8980276,3.8980276 0 0 0 -3.71093,2.75586 c -0.2533,0.78784 -0.18982,0.89681 -0.20508,1.11133 -0.0153,0.21453 -0.0188,0.39536 -0.0215,0.5918 -0.005,0.39288 0.001,0.83945 0.0156,1.38476 0.0285,1.09063 0.0902,2.5564 0.18164,4.375 0.18277,3.63721 0.48153,8.66951 0.86133,14.64258 0.75959,11.94614 1.84004,27.64185 2.94336,43.26563 2.20663,31.24756 4.50586,62.20507 4.50586,62.20508 a 3.8980276,3.8980276 0 0 0 1.76171,2.97851 l 3.78907,2.4668 a 3.8983136,3.8983136 0 1 0 4.25195,-6.53516 l -2.16797,-1.41015 c -0.13554,-1.82739 -2.22619,-29.99105 -4.36328,-60.25391 -1.10266,-15.61455 -2.18408,-31.30048 -2.94141,-43.21094 -0.37866,-5.95523 -0.67604,-10.9685 -0.85546,-14.53906 -0.0897,-1.78528 -0.1503,-3.21378 -0.17579,-4.1875 -0.0127,-0.48686 -0.0146,-0.86668 -0.0117,-1.07617 2.9e-4,-0.0215 -4.5e-4,-0.0115 0,-0.0293 a 3.8980276,3.8980276 0 0 0 -3.85743,-4.53516 z"
       id="path4628"
       inkscape:connector-curvature="0" />
    <path
       style="color:#000000;font-style:normal;font-variant:normal;font-weight:normal;font-stretch:normal;font-size:medium;line-height:normal;font-family:sans-serif;font-variant-ligatures:normal;font-variant-position:normal;font-variant-caps:normal;font-variant-numeric:normal;font-variant-alternates:normal;font-feature-settings:normal;text-indent:0;text-align:start;text-decoration:none;text-decoration-line:none;text-decoration-style:solid;text-decoration-color:#000000;letter-spacing:normal;word-spacing:normal;text-transform:none;writing-mode:lr-tb;direction:ltr;text-orientation:mixed;dominant-baseline:auto;baseline-shift:baseline;text-anchor:start;white-space:normal;shape-padding:0;clip-rule:nonzero;display:inline;overflow:visible;visibility:visible;opacity:1;isolation:auto;mix-blend-mode:normal;color-interpolation:sRGB;color-interpolation-filters:linearRGB;solid-color:#000000;solid-opacity:1;vector-effect:none;fill:#000000;fill-opacity:1;fill-rule:nonzero;stroke:none;stroke-width:7.79527569;stroke-linecap:round;stroke-linejoin:round;stroke-miterlimit:4;stroke-dasharray:none;stroke-dashoffset:0;stroke-opacity:1;color-rendering:auto;image-rendering:auto;shape-rendering:auto;text-rendering:auto;enable-background:accumulate"
       d="m 404.50977,506.86523 a 3.8980276,3.8980276 0 0 0 -4.00977,3.7793 c 0,0 -1.20049,27.38097 -1.58984,39.05859 -0.40939,12.27881 1.3906,48.17891 4.69531,94.04688 2.11287,29.32565 6.94769,61.06092 10.87109,84.87109 -0.84639,-0.62385 -1.79757,-1.15538 -3.04101,-1.41797 -2.37474,-0.50148 -4.66711,0.81494 -5.86328,2.12696 -1.19618,1.31201 -1.9322,2.7721 -2.61524,4.40234 -0.4512,1.07691 -0.80854,2.32616 -1.18555,3.53906 -0.36075,-0.66722 -0.79649,-1.3101 -1.35546,-1.92578 -1.12336,-1.23728 -3.11302,-2.34163 -5.17969,-2.20703 -2.00329,0.13048 -3.63867,1.2157 -4.72852,2.3711 -1.08984,1.15539 -1.83032,2.45216 -2.4707,3.83789 -1.28075,2.77144 -2.12446,5.98003 -2.78516,9.13672 -0.10641,0.5084 -0.12894,0.87995 -0.22461,1.38281 -0.46475,-0.60708 -0.83143,-1.28487 -1.35742,-1.83399 -0.69078,-0.72115 -1.43276,-1.40017 -2.46094,-1.96289 -1.02817,-0.56272 -2.56518,-1.05039 -4.24414,-0.60547 -2.27107,0.60184 -3.53469,2.04048 -4.54687,3.43946 -1.01218,1.39898 -1.76026,2.9449 -2.34766,4.52929 -0.58739,1.5844 -1.00236,3.18909 -1.18359,4.76172 -0.18124,1.57264 -0.44214,3.08975 0.80273,5.16407 a 3.8980276,3.8980276 0 0 0 3.28907,1.89257 c 0,0 18.51795,0.32525 25.04687,-0.23828 0.23793,-0.0205 0.82878,-0.14159 1.0957,-0.16992 a 3.8980276,3.8980276 0 0 0 5.04883,-0.7832 c 3.03375,-0.4639 5.66727,-0.80359 9.05274,-1.4043 5.68334,-1.00844 10.65039,-1.95508 10.65039,-1.95508 a 3.8980276,3.8980276 0 0 0 3.10351,-4.52929 c 0,0 -12.32665,-67.58042 -15.59765,-112.98047 -3.29794,-45.77395 -5.04273,-82.28105 -4.67774,-93.22852 0.38505,-11.54865 1.58789,-38.97656 1.58789,-38.97656 a 3.8980276,3.8980276 0 0 0 -3.77929,-4.1211 z m 6.01953,229.18165 c 0.33086,0.39841 0.6447,0.7072 1.00976,1.38476 1.13224,2.10144 2.287,5.10844 3.24805,8.10938 1.0261,3.20406 1.79808,6.1985 2.3418,8.47265 -1.93426,0.35924 -2.46038,0.46835 -5.26953,0.9668 -2.32617,0.41275 -3.72265,0.56763 -5.9961,0.9375 0.38801,-2.75295 0.87089,-5.99131 1.55274,-9.3418 0.7678,-3.77286 1.74855,-7.48646 2.73046,-9.83008 0.15861,-0.37856 0.22952,-0.40488 0.38282,-0.69921 z m -15.14258,6.11914 c 0.60614,1.7235 1.12646,4.50701 1.42578,7.3789 0.28825,2.76565 0.39409,5.506 0.44531,7.70508 -0.97768,0.0818 -3.6931,0.0642 -5.55664,0.10352 0.26689,-2.08744 0.63116,-4.64139 1.18164,-7.27149 0.59514,-2.84344 1.39631,-5.65979 2.23047,-7.46484 0.10708,-0.2317 0.16806,-0.25757 0.27344,-0.45117 z m -16.92188,11.84179 c 0.65036,0.76784 1.4005,1.74262 2.13672,2.93555 0.16449,0.26652 0.14095,0.28517 0.29883,0.55273 -1.83769,-0.007 -2.70152,-0.0105 -3.85937,-0.0195 0.12141,-0.46521 0.16106,-0.85508 0.33789,-1.33203 0.3128,-0.84372 0.71378,-1.53358 1.08593,-2.13672 z"
       id="path4632"
       inkscape:connector-curvature="0" />
    <path
       style="color:#000000;font-style:normal;font-variant:normal;font-weight:normal;font-stretch:normal;font-size:medium;line-height:normal;font-family:sans-serif;font-variant-ligatures:normal;font-variant-position:normal;font-variant-caps:normal;font-variant-numeric:normal;font-variant-alternates:normal;font-feature-settings:normal;text-indent:0;text-align:start;text-decoration:none;text-decoration-line:none;text-decoration-style:solid;text-decoration-color:#000000;letter-spacing:normal;word-spacing:normal;text-transform:none;writing-mode:lr-tb;direction:ltr;text-orientation:mixed;dominant-baseline:auto;baseline-shift:baseline;text-anchor:start;white-space:normal;shape-padding:0;clip-rule:nonzero;display:inline;overflow:visible;visibility:visible;opacity:1;isolation:auto;mix-blend-mode:normal;color-interpolation:sRGB;color-interpolation-filters:linearRGB;solid-color:#000000;solid-opacity:1;vector-effect:none;fill:#000000;fill-opacity:1;fill-rule:nonzero;stroke:none;stroke-width:7.79527569;stroke-linecap:round;stroke-linejoin:round;stroke-miterlimit:4;stroke-dasharray:none;stroke-dashoffset:0;stroke-opacity:1;color-rendering:auto;image-rendering:auto;shape-rendering:auto;text-rendering:auto;enable-background:accumulate"
       d="m 351.65039,669.26953 a 3.8980276,3.8980276 0 0 0 -3.64648,2.29102 c -0.6833,1.45486 -0.81331,2.5656 -1.03711,3.97461 -0.22381,1.409 -0.39603,2.95102 -0.53321,4.4082 -0.27435,2.91437 -0.40429,5.50586 -0.40429,5.50586 a 3.8980276,3.8980276 0 1 0 7.78515,0.39258 c 0,0 0.12538,-2.45404 0.38086,-5.16797 0.12775,-1.35697 0.28949,-2.7751 0.47071,-3.91602 0.18122,-1.14092 0.52761,-2.16812 0.39453,-1.88476 a 3.8980276,3.8980276 0 0 0 -3.41016,-5.60352 z"
       id="path4634"
       inkscape:connector-curvature="0" />
    <path
       style="color:#000000;font-style:normal;font-variant:normal;font-weight:normal;font-stretch:normal;font-size:medium;line-height:normal;font-family:sans-serif;font-variant-ligatures:normal;font-variant-position:normal;font-variant-caps:normal;font-variant-numeric:normal;font-variant-alternates:normal;font-feature-settings:normal;text-indent:0;text-align:start;text-decoration:none;text-decoration-line:none;text-decoration-style:solid;text-decoration-color:#000000;letter-spacing:normal;word-spacing:normal;text-transform:none;writing-mode:lr-tb;direction:ltr;text-orientation:mixed;dominant-baseline:auto;baseline-shift:baseline;text-anchor:start;white-space:normal;shape-padding:0;clip-rule:nonzero;display:inline;overflow:visible;visibility:visible;opacity:1;isolation:auto;mix-blend-mode:normal;color-interpolation:sRGB;color-interpolation-filters:linearRGB;solid-color:#000000;solid-opacity:1;vector-effect:none;fill:#000000;fill-opacity:1;fill-rule:nonzero;stroke:none;stroke-width:7.79527569;stroke-linecap:round;stroke-linejoin:round;stroke-miterlimit:4;stroke-dasharray:none;stroke-dashoffset:0;stroke-opacity:1;color-rendering:auto;image-rendering:auto;shape-rendering:auto;text-rendering:auto;enable-background:accumulate"
       d="m 354.48828,741.90039 a 3.8980276,3.8980276 0 0 0 -2.23047,7.13867 l 8.04883,5.54297 a 3.8980276,3.8980276 0 1 0 4.41992,-6.42187 l -8.04883,-5.54102 a 3.8980276,3.8980276 0 0 0 -2.18945,-0.71875 z"
       id="path4636"
       inkscape:connector-curvature="0" />
    <path
       style="color:#000000;font-style:normal;font-variant:normal;font-weight:normal;font-stretch:normal;font-size:medium;line-height:normal;font-family:sans-serif;font-variant-ligatures:normal;font-variant-position:normal;font-variant-caps:normal;font-variant-numeric:normal;font-variant-alternates:normal;font-feature-settings:normal;text-indent:0;text-align:start;text-decoration:none;text-decoration-line:none;text-decoration-style:solid;text-decoration-color:#000000;letter-spacing:normal;word-spacing:normal;text-transform:none;writing-mode:lr-tb;direction:ltr;text-orientation:mixed;dominant-baseline:auto;baseline-shift:baseline;text-anchor:start;white-space:normal;shape-padding:0;clip-rule:nonzero;display:inline;overflow:visible;visibility:visible;opacity:1;isolation:auto;mix-blend-mode:normal;color-interpolation:sRGB;color-interpolation-filters:linearRGB;solid-color:#000000;solid-opacity:1;vector-effect:none;fill:#000000;fill-opacity:1;fill-rule:nonzero;stroke:none;stroke-width:7.79527569;stroke-linecap:round;stroke-linejoin:round;stroke-miterlimit:4;stroke-dasharray:none;stroke-dashoffset:0;stroke-opacity:1;color-rendering:auto;image-rendering:auto;shape-rendering:auto;text-rendering:auto;enable-background:accumulate"
       d="m 104.89648,626.80664 a 3.8980276,3.8980276 0 0 0 -2.75781,0.98047 l -15.466795,13.36523 a 3.8980276,3.8980276 0 0 0 -1.310547,2.39844 c 0,0 -1.663403,11.64086 -2.896484,25.42774 -1.233081,13.78687 -2.18825,29.42887 -0.244141,39.05468 3.802944,18.8294 20.316757,31.5453 32.714847,38.85157 7.3548,4.33422 15.65891,3.18444 22.46093,0.68164 6.80203,-2.50281 12.53452,-6.42558 15.71094,-8.68946 3.10717,-2.2145 4.04163,-5.49459 4.82813,-8.95312 0.7865,-3.45854 1.14065,-7.32239 1.30859,-11.01367 0.33589,-7.38257 -0.12891,-14.11524 -0.12891,-14.11524 a 3.8980276,3.8980276 0 1 0 -7.77734,0.53125 c 0,0 0.43027,6.39008 0.11914,13.22852 -0.15557,3.41922 -0.50916,6.94114 -1.12305,9.64062 -0.61388,2.69948 -1.77177,4.34811 -1.75195,4.33399 -2.99827,2.1369 -8.24807,5.65151 -13.87695,7.72265 -5.62888,2.07115 -11.20511,2.63313 -15.8125,-0.082 -11.5263,-6.79251 -25.987016,-18.60686 -29.031252,-33.67969 -1.479479,-7.3253 -0.84515,-23.26342 0.367188,-36.81835 1.144285,-12.79406 2.522086,-22.4264 2.689453,-23.61329 l 14.318361,-12.37304 a 3.8980276,3.8980276 0 0 0 -2.33985,-6.87891 z"
       id="path4638"
       inkscape:connector-curvature="0" />
    <path
       style="color:#000000;font-style:normal;font-variant:normal;font-weight:normal;font-stretch:normal;font-size:medium;line-height:normal;font-family:sans-serif;font-variant-ligatures:normal;font-variant-position:normal;font-variant-caps:normal;font-variant-numeric:normal;font-variant-alternates:normal;font-feature-settings:normal;text-indent:0;text-align:start;text-decoration:none;text-decoration-line:none;text-decoration-style:solid;text-decoration-color:#000000;letter-spacing:normal;word-spacing:normal;text-transform:none;writing-mode:lr-tb;direction:ltr;text-orientation:mixed;dominant-baseline:auto;baseline-shift:baseline;text-anchor:start;white-space:normal;shape-padding:0;clip-rule:nonzero;display:inline;overflow:visible;visibility:visible;opacity:1;isolation:auto;mix-blend-mode:normal;color-interpolation:sRGB;color-interpolation-filters:linearRGB;solid-color:#000000;solid-opacity:1;vector-effect:none;fill:#000000;fill-opacity:1;fill-rule:nonzero;stroke:none;stroke-width:7.79527569;stroke-linecap:round;stroke-linejoin:round;stroke-miterlimit:4;stroke-dasharray:none;stroke-dashoffset:0;stroke-opacity:1;color-rendering:auto;image-rendering:auto;shape-rendering:auto;text-rendering:auto;enable-background:accumulate"
       d="m 84.958984,615.9707 a 3.8980276,3.8980276 0 0 0 -4.029296,3.33008 c 0,0 -1.465876,8.61123 -1.394532,14.25586 0.08416,6.64791 4.563205,11.16746 5.144532,12.32031 a 3.8980276,3.8980276 0 1 0 6.960937,-3.50976 c -1.90486,-3.77763 -4.272449,-5.89885 -4.310547,-8.90821 -0.05072,-4.01259 1.296875,-12.92187 1.296875,-12.92187 a 3.8980276,3.8980276 0 0 0 -3.667969,-4.56641 z"
       id="path4640"
       inkscape:connector-curvature="0" />
    <path
       style="color:#000000;font-style:normal;font-variant:normal;font-weight:normal;font-stretch:normal;font-size:medium;line-height:normal;font-family:sans-serif;font-variant-ligatures:normal;font-variant-position:normal;font-variant-caps:normal;font-variant-numeric:normal;font-variant-alternates:normal;font-feature-settings:normal;text-indent:0;text-align:start;text-decoration:none;text-decoration-line:none;text-decoration-style:solid;text-decoration-color:#000000;letter-spacing:normal;word-spacing:normal;text-transform:none;writing-mode:lr-tb;direction:ltr;text-orientation:mixed;dominant-baseline:auto;baseline-shift:baseline;text-anchor:start;white-space:normal;shape-padding:0;clip-rule:nonzero;display:inline;overflow:visible;visibility:visible;opacity:1;isolation:auto;mix-blend-mode:normal;color-interpolation:sRGB;color-interpolation-filters:linearRGB;solid-color:#000000;solid-opacity:1;vector-effect:none;fill:#000000;fill-opacity:1;fill-rule:nonzero;stroke:none;stroke-width:7.79527569;stroke-linecap:round;stroke-linejoin:round;stroke-miterlimit:4;stroke-dasharray:none;stroke-dashoffset:0;stroke-opacity:1;color-rendering:auto;image-rendering:auto;shape-rendering:auto;text-rendering:auto;enable-background:accumulate"
       d="m 65.509766,628.68359 a 3.8980276,3.8980276 0 0 0 -2.248047,7.13282 c 0,0 15.088557,10.45155 22.333984,15.00781 a 3.8980276,3.8980276 0 1 0 4.150391,-6.59766 C 82.930358,639.94052 67.697266,629.40625 67.697266,629.40625 a 3.8980276,3.8980276 0 0 0 -2.1875,-0.72266 z"
       id="path4642"
       inkscape:connector-curvature="0" />
    <path
       style="color:#000000;font-style:normal;font-variant:normal;font-weight:normal;font-stretch:normal;font-size:medium;line-height:normal;font-family:sans-serif;font-variant-ligatures:normal;font-variant-position:normal;font-variant-caps:normal;font-variant-numeric:normal;font-variant-alternates:normal;font-feature-settings:normal;text-indent:0;text-align:start;text-decoration:none;text-decoration-line:none;text-decoration-style:solid;text-decoration-color:#000000;letter-spacing:normal;word-spacing:normal;text-transform:none;writing-mode:lr-tb;direction:ltr;text-orientation:mixed;dominant-baseline:auto;baseline-shift:baseline;text-anchor:start;white-space:normal;shape-padding:0;clip-rule:nonzero;display:inline;overflow:visible;visibility:visible;opacity:1;isolation:auto;mix-blend-mode:normal;color-interpolation:sRGB;color-interpolation-filters:linearRGB;solid-color:#000000;solid-opacity:1;vector-effect:none;fill:#000000;fill-opacity:1;fill-rule:nonzero;stroke:none;stroke-width:7.79527569;stroke-linecap:round;stroke-linejoin:round;stroke-miterlimit:4;stroke-dasharray:none;stroke-dashoffset:0;stroke-opacity:1;color-rendering:auto;image-rendering:auto;shape-rendering:auto;text-rendering:auto;enable-background:accumulate"
       d="m 158.29492,728.44531 c -1.11982,-0.11088 -2.30606,-0.007 -3.47461,0.4375 -5.39901,2.05165 -8.55469,5.63281 -8.55469,5.63281 a 3.8980276,3.8980276 0 1 0 5.85547,5.14649 c 0,0 1.86046,-2.12297 5.46875,-3.49414 -0.0853,0.0324 -0.0851,-0.0686 0.51172,0.20703 0.59681,0.27561 1.53055,0.9433 2.44532,1.8125 1.82953,1.7384 3.57331,4.14355 4.36914,5.27734 a 3.8980276,3.8980276 0 1 0 6.3789,-4.47851 c -0.83446,-1.18884 -2.78944,-3.99059 -5.37695,-6.44922 -1.29376,-1.22931 -2.7467,-2.40801 -4.54883,-3.24023 -0.90106,-0.41612 -1.9544,-0.74068 -3.07422,-0.85157 z"
       id="path4644"
       inkscape:connector-curvature="0" />
    <path
       style="color:#000000;font-style:normal;font-variant:normal;font-weight:normal;font-stretch:normal;font-size:medium;line-height:normal;font-family:sans-serif;font-variant-ligatures:normal;font-variant-position:normal;font-variant-caps:normal;font-variant-numeric:normal;font-variant-alternates:normal;font-feature-settings:normal;text-indent:0;text-align:start;text-decoration:none;text-decoration-line:none;text-decoration-style:solid;text-decoration-color:#000000;letter-spacing:normal;word-spacing:normal;text-transform:none;writing-mode:lr-tb;direction:ltr;text-orientation:mixed;dominant-baseline:auto;baseline-shift:baseline;text-anchor:start;white-space:normal;shape-padding:0;clip-rule:nonzero;display:inline;overflow:visible;visibility:visible;opacity:1;isolation:auto;mix-blend-mode:normal;color-interpolation:sRGB;color-interpolation-filters:linearRGB;solid-color:#000000;solid-opacity:1;vector-effect:none;fill:#000000;fill-opacity:1;fill-rule:nonzero;stroke:none;stroke-width:7.79527569;stroke-linecap:round;stroke-linejoin:round;stroke-miterlimit:4;stroke-dasharray:none;stroke-dashoffset:0;stroke-opacity:1;color-rendering:auto;image-rendering:auto;shape-rendering:auto;text-rendering:auto;enable-background:accumulate"
       d="m 475.74219,185.02148 c -1.62708,-0.24217 -3.74315,-0.002 -5.36914,1.33204 -2.07753,1.70425 -2.2446,4.3165 -1.96875,6.13476 0.27585,1.81827 0.93842,3.52806 1.8164,5.41016 1.75597,3.7642 4.48018,8.1201 7.60157,12.68359 6.24276,9.12697 14.07023,18.95991 18.35351,24.29492 a 3.8980276,3.8980276 0 0 0 0.36719,0.39844 c 0.48664,0.45792 1.41331,1.06901 2.64453,1.11328 1.23122,0.0443 2.32291,-0.55958 2.87109,-1.05859 1.09637,-0.99802 1.12433,-1.5794 1.2793,-2.05469 0.30995,-0.95058 0.38598,-1.68313 0.4707,-2.61914 0.16946,-1.87202 0.18306,-4.29424 0,-7.04687 -0.3661,-5.50528 -1.36086,-12.15996 -4.50586,-17.32227 l 0.47657,1.18164 c -0.64986,-2.92369 -2.1438,-4.50329 -4.125,-6.96484 -1.9812,-2.46156 -4.49742,-5.16791 -7.17969,-7.64453 -2.68227,-2.47663 -5.4796,-4.71377 -8.29102,-6.23047 -1.4057,-0.75836 -2.81432,-1.36525 -4.4414,-1.60743 z m 1.29492,8.88868 c 1.76776,1.03839 3.96563,2.66047 6.15039,4.67773 2.3818,2.19919 4.69231,4.6878 6.39453,6.80273 1.70222,2.11494 2.74866,4.49284 2.58789,3.76954 a 3.8980276,3.8980276 0 0 0 0.47656,1.18164 c 1.52044,2.4957 2.49558,7.02932 3.00977,11.26758 -3.74566,-4.81754 -7.77299,-10.1264 -11.40039,-15.42969 -2.99982,-4.38576 -5.56354,-8.55968 -6.9707,-11.57617 -0.1486,-0.31854 -0.1275,-0.40264 -0.24805,-0.69336 z"
       id="path4646"
       inkscape:connector-curvature="0" />
    <path
       style="color:#000000;font-style:normal;font-variant:normal;font-weight:normal;font-stretch:normal;font-size:medium;line-height:normal;font-family:sans-serif;font-variant-ligatures:normal;font-variant-position:normal;font-variant-caps:normal;font-variant-numeric:normal;font-variant-alternates:normal;font-feature-settings:normal;text-indent:0;text-align:start;text-decoration:none;text-decoration-line:none;text-decoration-style:solid;text-decoration-color:#000000;letter-spacing:normal;word-spacing:normal;text-transform:none;writing-mode:lr-tb;direction:ltr;text-orientation:mixed;dominant-baseline:auto;baseline-shift:baseline;text-anchor:start;white-space:normal;shape-padding:0;clip-rule:nonzero;display:inline;overflow:visible;visibility:visible;opacity:1;isolation:auto;mix-blend-mode:normal;color-interpolation:sRGB;color-interpolation-filters:linearRGB;solid-color:#000000;solid-opacity:1;vector-effect:none;fill:#000000;fill-opacity:1;fill-rule:nonzero;stroke:none;stroke-width:7.79527569;stroke-linecap:round;stroke-linejoin:round;stroke-miterlimit:4;stroke-dasharray:none;stroke-dashoffset:0;stroke-opacity:1;color-rendering:auto;image-rendering:auto;shape-rendering:auto;text-rendering:auto;enable-background:accumulate"
       d="m 506.45117,131.46875 c -1.61402,-0.20472 -3.13612,0.69483 -3.81055,1.4082 -0.67442,0.71338 -0.95041,1.31618 -1.19531,1.89063 -0.48978,1.1489 -0.7454,2.27714 -0.99414,3.59765 -0.49747,2.64104 -0.83067,5.94468 -1.08203,9.41993 -0.50272,6.95048 -0.64448,14.35692 -0.58789,17.23046 0.068,3.45555 1.09918,10.37276 2.30273,18.125 1.20356,7.75225 2.5889,15.86659 3.41211,20.17969 0.74862,3.92228 1.78641,11.97034 2.75586,19.33399 0.48473,3.68182 0.95689,7.21437 1.39063,10.07812 0.37357,2.46653 0.64741,4.00958 1.10937,5.58008 0.04,0.26612 0.0879,0.60156 0.0879,0.60156 l 0.0312,-0.01 c 0.0286,0.0853 0.0301,0.2215 0.0606,0.30664 a 3.8980276,3.8980276 0 0 0 7.35156,-0.0645 c -0.0154,0.0338 0.17141,-0.281 1.12696,-1.06054 1.84095,-1.50189 1.83682,-2.72561 2.09765,-3.91211 0.26083,-1.1865 0.39883,-2.45328 0.49805,-3.875 0.19845,-2.84344 0.20792,-6.26671 0.17187,-9.77149 -0.036,-3.50477 -0.12255,-7.07814 -0.14257,-10.0625 -0.02,-2.98435 0.0917,-5.5711 0.19922,-6.19922 0.36304,-2.12132 0.45471,-5.32142 0.56835,-9.90039 0.11364,-4.57897 0.16644,-10.19135 0.15235,-15.79296 -0.0141,-5.60161 -0.094,-11.18536 -0.2461,-15.71289 -0.15206,-4.52754 -0.19121,-7.44913 -0.77539,-9.84571 -0.83099,-3.40917 -2.98781,-7.79398 -5.42187,-12.01367 -1.21703,-2.10985 -2.48212,-4.08386 -3.75195,-5.70117 -0.63492,-0.80866 -1.26226,-1.52927 -2.00196,-2.1836 -0.7397,-0.65432 -1.51561,-1.41932 -3.30664,-1.64648 z m 1.26367,11.83398 c 0.36352,0.58076 0.67967,0.96198 1.04297,1.5918 2.18168,3.78216 4.25255,8.525 4.60352,9.96485 0.007,0.0279 0.40875,3.85846 0.55664,8.26171 0.14789,4.40326 0.22825,9.93032 0.24219,15.47071 0.0139,5.54038 -0.0392,11.10092 -0.15039,15.58008 -0.11117,4.47915 -0.36352,8.22145 -0.45899,8.77929 -0.31314,1.82976 -0.29182,4.11739 -0.27734,6.75 -0.37435,-2.61303 -0.7796,-6.05257 -1.1211,-7.84179 -0.78668,-4.12171 -2.17431,-12.24521 -3.36523,-19.91602 -1.19092,-7.67081 -2.17708,-15.36262 -2.21094,-17.08203 -0.0453,-2.30144 0.0878,-9.86966 0.56836,-16.51367 0.14195,-1.96263 0.37005,-3.39031 0.57031,-5.04493 z m 9.77344,94.43165 c 5.7e-4,0.0114 0.006,0.0226 0.006,0.0332 2.1e-4,0.009 -0.002,0.0147 -0.002,0.0234 a 3.8980276,3.8980276 0 0 0 -0.004,-0.0566 z"
       id="path4648"
       inkscape:connector-curvature="0" />
    <path
       style="color:#000000;font-style:normal;font-variant:normal;font-weight:normal;font-stretch:normal;font-size:medium;line-height:normal;font-family:sans-serif;font-variant-ligatures:normal;font-variant-position:normal;font-variant-caps:normal;font-variant-numeric:normal;font-variant-alternates:normal;font-feature-settings:normal;text-indent:0;text-align:start;text-decoration:none;text-decoration-line:none;text-decoration-style:solid;text-decoration-color:#000000;letter-spacing:normal;word-spacing:normal;text-transform:none;writing-mode:lr-tb;direction:ltr;text-orientation:mixed;dominant-baseline:auto;baseline-shift:baseline;text-anchor:start;white-space:normal;shape-padding:0;clip-rule:nonzero;display:inline;overflow:visible;visibility:visible;opacity:1;isolation:auto;mix-blend-mode:normal;color-interpolation:sRGB;color-interpolation-filters:linearRGB;solid-color:#000000;solid-opacity:1;vector-effect:none;fill:#000000;fill-opacity:1;fill-rule:nonzero;stroke:none;stroke-width:7.79527569;stroke-linecap:round;stroke-linejoin:round;stroke-miterlimit:4;stroke-dasharray:none;stroke-dashoffset:0;stroke-opacity:1;color-rendering:auto;image-rendering:auto;shape-rendering:auto;text-rendering:auto;enable-background:accumulate"
       d="m 551.7832,104.19141 c -0.65446,-0.0727 -1.30941,-0.0307 -1.85937,0.12109 -1.09992,0.30365 -1.82926,0.84556 -2.41016,1.36719 -1.1618,1.04324 -1.87836,2.17932 -2.6289,3.49609 -1.50109,2.63355 -2.89816,6.02262 -4.26368,9.67188 -2.73103,7.29851 -5.28408,15.71066 -6.36523,18.64453 -0.90418,2.45364 -1.30612,5.47869 -1.72266,9.20898 -0.41654,3.73029 -0.7307,7.98792 -0.96875,12.03125 -0.47609,8.08666 -0.64453,15.32422 -0.64453,15.32422 a 3.8980276,3.8980276 0 0 0 7.5293,1.50391 c 0,0 4.11514,-10.56254 5.88476,-15.76367 0.59666,-1.75362 3.05049,-6.67795 5.46094,-11.25196 2.41046,-4.57401 4.73821,-8.77979 5.78711,-11.34765 a 3.8980276,3.8980276 0 0 0 0,-0.002 c 0.761,-1.86306 1.0589,-3.85065 1.43359,-6.58593 0.3747,-2.73529 0.66847,-5.9585 0.78711,-9.16797 0.11865,-3.20948 0.0736,-6.37585 -0.30859,-9.13868 -0.19109,-1.38141 -0.4533,-2.66191 -0.93945,-3.91015 -0.48615,-1.24825 -1.17825,-2.66125 -2.91992,-3.63672 -0.54398,-0.30468 -1.1971,-0.4918 -1.85157,-0.56445 z m -1.89453,12.88867 c 0.0455,1.3811 0.18157,2.5441 0.125,4.07422 -0.10806,2.92307 -0.38406,5.93896 -0.7207,8.39648 -0.33664,2.45752 -0.89202,4.61462 -0.92578,4.69727 -0.54063,1.32354 -3.03226,6.04238 -5.4668,10.66211 -0.9977,1.89321 -1.94781,3.72131 -2.84961,5.50195 0.0861,-0.92449 0.13261,-1.98875 0.22852,-2.84766 0.39159,-3.50691 0.98267,-6.5402 1.29101,-7.37695 1.34391,-3.6469 3.75362,-11.66652 6.35157,-18.60938 0.68396,-1.82786 1.29945,-2.97678 1.96679,-4.49804 z"
       id="path4650"
       inkscape:connector-curvature="0" />
    <path
       style="color:#000000;font-style:normal;font-variant:normal;font-weight:normal;font-stretch:normal;font-size:medium;line-height:normal;font-family:sans-serif;font-variant-ligatures:normal;font-variant-position:normal;font-variant-caps:normal;font-variant-numeric:normal;font-variant-alternates:normal;font-feature-settings:normal;text-indent:0;text-align:start;text-decoration:none;text-decoration-line:none;text-decoration-style:solid;text-decoration-color:#000000;letter-spacing:normal;word-spacing:normal;text-transform:none;writing-mode:lr-tb;direction:ltr;text-orientation:mixed;dominant-baseline:auto;baseline-shift:baseline;text-anchor:start;white-space:normal;shape-padding:0;clip-rule:nonzero;display:inline;overflow:visible;visibility:visible;opacity:1;isolation:auto;mix-blend-mode:normal;color-interpolation:sRGB;color-interpolation-filters:linearRGB;solid-color:#000000;solid-opacity:1;vector-effect:none;fill:#000000;fill-opacity:1;fill-rule:nonzero;stroke:none;stroke-width:7.79527569;stroke-linecap:round;stroke-linejoin:round;stroke-miterlimit:4;stroke-dasharray:none;stroke-dashoffset:0;stroke-opacity:1;color-rendering:auto;image-rendering:auto;shape-rendering:auto;text-rendering:auto;enable-background:accumulate"
       d="m 551.72266,177.36133 c -2.69933,0.0477 -3.00655,1.05203 -3.78321,1.73047 -0.77665,0.67843 -1.5267,1.46829 -2.35351,2.39648 -1.65362,1.85638 -3.56363,4.25056 -5.5586,6.81641 -3.98993,5.1317 -8.36783,11.01031 -10.71484,13.69726 -3.98925,4.56703 -5.11834,11.45357 -6.15039,17.69727 -1.03205,6.24369 -1.38477,11.68945 -1.38477,11.68945 a 3.8980276,3.8980276 0 0 0 6.67383,2.98047 c 0,0 4.77367,-4.59961 7.2168,-9.58984 1.40997,-2.87994 4.21945,-4.83551 9.49805,-11.4961 2.55262,-3.22093 5.86962,-7.50659 8.67578,-11.59765 1.40308,-2.04553 2.67776,-4.0383 3.68945,-5.89258 1.01169,-1.85428 1.82374,-3.43359 2.09766,-5.48242 0.39091,-2.92398 -0.14856,-5.68388 -1.26172,-8.01953 -0.55658,-1.16783 -1.25929,-2.2448 -2.28125,-3.17579 -1.02196,-0.93098 -2.51839,-1.78659 -4.36328,-1.7539 z m -0.14063,9.13281 c 0.26088,0.87238 0.44011,1.88912 0.32031,2.78516 -0.001,0.009 -0.40261,1.29416 -1.21289,2.77929 -0.81028,1.48514 -1.96753,3.30724 -3.27734,5.2168 -2.61962,3.81912 -5.85423,8.00992 -8.35547,11.16602 -2.94975,3.72203 -5.23146,5.91072 -7.14453,8.15039 1.06748,-4.34973 2.37228,-8.4315 3.27148,-9.46094 2.84951,-3.26223 7.09131,-9.01827 10.99805,-14.04297 1.95337,-2.51235 3.81194,-4.82598 5.22656,-6.41406 0.0742,-0.0833 0.10199,-0.10048 0.17383,-0.17969 z"
       id="path4652"
       inkscape:connector-curvature="0" />
  </g>
  <g
     inkscape:groupmode="layer"
     id="layer3"
     inkscape:label="découpe"
     style="display:inline">
    <path
       style="opacity:1;fill:none;fill-opacity:1;stroke:#ff0000;stroke-width:0.9375;stroke-linecap:round;stroke-linejoin:round;stroke-miterlimit:4;stroke-dasharray:none;stroke-opacity:1"
       d="m 368.15461,226.72177 c 15.43138,13.80625 37.70615,28.03348 55.41113,38.92816 12.63448,6.99207 41.5706,8.90055 55.38221,12.48968 7.32761,3.82082 0.96379,22.06134 -8.16026,18.75949 -10.33031,-1.58406 -21.93288,2.74585 -23.97125,14.11904 -4.22618,13.79307 5.6888,27.37177 17.182,34.03642 15.77367,9.89325 32.61326,8.54715 49.57416,0.6317 8.13754,-4.29406 13.55758,-14.6745 9.19827,-23.49172 -1.54593,-9.93533 -15.21048,-13.14211 -15.38562,-23.08658 -1.31472,-9.75547 5.38785,-14.5213 12.42992,-11.78749 10.03727,0.49689 46.91304,31.57599 75.98728,41.72094"
       id="path4659"
       inkscape:connector-curvature="0"
       sodipodi:nodetypes="ccccccccccc" />
    <path
       id="path4676"
       style="opacity:1;fill:none;fill-opacity:1;stroke:#ff0000;stroke-width:0.9375;stroke-linecap:round;stroke-linejoin:round;stroke-miterlimit:4;stroke-dasharray:none;stroke-opacity:1"
       d="m 360.50513,234.45957 c 0,0 -9.76423,71.36946 -7.62515,75.67276 2.13906,4.3033 11.50065,7.04635 16.0556,4.83178 4.55497,-2.21456 3.86518,-24.29974 22.97614,-21.20196 19.11096,3.09779 19.15614,29.30441 18.82382,38.54102 -2.61361,22.59682 -7.31293,38.48663 -24.47349,35.83572 -17.16055,-2.6509 -12.67084,-16.18144 -15.81653,-21.41587 -3.14569,-5.23444 -16.86091,-5.1086 -18.94965,-1.30861 -2.08874,3.8 -8.40529,51.66484 -8.45562,63.06483 -0.0503,11.39998 0.42782,30.67678 0.42782,30.67678 0.97642,26.86984 -2.9494,40.48439 -4.05669,58.2261 -1.10728,17.7417 -6.21589,23.02646 -1.58543,25.54301 4.63046,2.51655 8.75762,4.29072 13.33774,-1.86225 4.58013,-6.15297 2.31523,-11.55098 24.91388,-9.86489 22.59865,1.68609 18.63492,60.72386 -7.75099,58.88735 -17.71653,-1.23311 -22.40092,-10.4074 -21.96951,-14.49535 0.80518,-7.62982 -14.11786,-8.1788 -17.23839,-4.40397 -3.12052,3.77483 -9.48741,38.88076 -9.48741,38.88076 -5.61551,23.65632 -7.8804,79.75029 -13.08967,82.5185 -5.20926,2.76821 -14.41985,3.74966 -15.32581,-0.55364 -0.90596,-4.30331 -5.07959,-16.81674 -20.88739,-19.90594 -28.58805,-5.58675 -41.44338,70.58478 -13.13641,74.16283 28.30696,3.57805 25.41719,-8.56803 29.21718,-14.65809 3.8,-6.09006 18.01223,-12.53244 22.06388,-6.7192 4.05166,5.81324 -6.06804,91.86594 -6.06804,91.86594 M 153.62287,477.19792 c 0.58748,-14.15886 -2.85259,-28.14067 -4.5385,-42.14562 -4.07032,-29.72361 -9.12688,-59.89294 -5.60481,-89.93051 2.1268,-19.11406 14.83857,-34.83764 27.99833,-47.94527 16.44244,-15.40866 36.05566,-28.7592 58.41662,-33.38718 34.79574,-2.88201 69.48397,-8.66839 103.00558,-18.56164 12.43401,-4.25193 26.07635,-8.04646 35.32171,-17.93679 11.64173,-17.2113 18.90676,-36.88545 28.34406,-55.31416 9.99563,-19.55831 19.66023,-40.19312 35.95928,-55.40282 9.98952,-8.47242 23.35176,-10.91137 35.54996,-14.69587 27.27484,-6.919825 55.38679,-12.181845 83.63703,-11.147421 10.79255,0.340728 22.89316,3.051329 28.94057,12.956251 11.42492,17.58734 14.29418,38.97385 16.79574,59.37056 4.61722,45.28721 0.77687,90.83775 -1.501,136.14157 0.47834,29.78501 3.10314,59.69428 -0.43216,89.40709 -2.47762,21.98985 -6.54332,44.39913 -18.07095,63.65669 -20.12676,35.86758 -50.19294,64.42292 -76.63976,95.45827 -6.12549,6.54421 -10.20923,14.96994 -9.65219,24.1029 0.11715,27.37692 6.39278,54.23327 10.99334,81.09402 5.03551,25.77796 9.04606,52.28193 4.76655,78.48363 -3.04895,19.06706 -10.03919,39.75288 -26.81074,50.96967 -18.10583,9.80581 -39.05688,12.18822 -59.17891,14.74959 -34.05874,3.61506 -84.37129,3.09145 -118.43831,-0.33742 -48.05963,-3.144 -80.4958,-1.51336 -128.38924,-7.05528 -8.94531,-0.95835 -17.65126,-3.34547 -25.69163,-7.40003 C 117.7585,770.44348 84.828702,759.78527 61.117124,735.83144 40.812322,715.44361 32.677927,686.22112 31.060251,658.16839 c -0.415989,-10.8274 -1.667351,-21.66747 -1.397,-32.49381 2.994027,-22.34032 13.226108,-43.08942 24.919148,-62.10019 6.215137,-10.77181 15.767955,-18.87071 25.897787,-25.81332 22.280144,-16.47974 46.121524,-31.13271 66.210944,-50.36438 2.76276,-3.00381 5.90026,-6.11496 6.93174,-10.19877 z"
       inkscape:connector-curvature="0"
       sodipodi:nodetypes="cccscsscccsscsscccssssccccccccccccccccccccccccccccccccccc" />
    <path
       style="opacity:1;fill:none;fill-opacity:1;stroke:#ff0000;stroke-width:0.9375;stroke-linecap:round;stroke-linejoin:round;stroke-miterlimit:4;stroke-dasharray:none;stroke-opacity:1"
       d="m 67.082514,547.96588 c 0,0 25.109623,5.21589 35.628816,5.69404 10.51919,0.47814 72.47672,5.43575 76.57871,10.74568 4.10199,5.30993 1.58543,14.72183 -4.10198,17.96819 -5.68741,3.24636 -22.69931,-2.49139 -29.26751,28.13507 -6.56821,30.62646 76.75487,38.62909 85.83963,12.58276 9.08476,-26.04633 -10.67018,-34.19996 -13.69005,-38.70459 -3.01987,-4.50463 0.10066,-13.63971 5.23443,-16.65958 5.13377,-3.01987 96.32671,22.33933 96.32671,22.33933 43.60828,8.83382 70.40957,8.95964 71.89434,12.18083 1.48477,3.22119 1.96291,17.28872 -3.39735,18.16952 -5.36026,0.8808 -17.13774,-0.75497 -19.02515,21.66752 -1.88742,22.42249 73.53369,28.26089 75.5721,4.88212 2.03842,-23.37878 -14.69667,-23.27811 -18.04368,-27.83308 -3.34702,-4.55497 -2.16425,-17.61587 1.71125,-18.89932 3.87549,-1.28344 20.13243,-3.22118 34.62778,-3.47284 14.49535,-0.25165 29.60107,-4.03338 29.60107,-4.03338"
       id="path4671"
       inkscape:connector-curvature="0"
       sodipodi:nodetypes="csssssssczzzzzzzc" />
    <path
       id="path4663"
       style="opacity:1;fill:none;fill-opacity:1;stroke:#ff0000;stroke-width:0.9375;stroke-linecap:round;stroke-linejoin:round;stroke-miterlimit:4;stroke-dasharray:none;stroke-opacity:1"
       d="m 286.64429,430.57458 c -2.74304,1.2331 -7.3735,11.55097 -4.73112,14.97349 2.64238,3.42252 22.44757,4.98969 12.88477,33.04234 -9.56281,28.05265 -66.81707,17.70346 -62.6622,-8.40528 4.15488,-26.10875 18.54701,-21.13905 20.91257,-24.73773 2.36556,-3.59867 3.14569,-11.50064 0.20132,-14.6715 -2.94437,-3.17086 -41.4728,-6.01456 -56.2198,-4.65563 -12.53189,1.96198 -49.52019,-2.02133 -49.53936,-1.12433 m 195.9776,14.16008 c 0,0 -54.08074,-9.81455 -56.82378,-8.58144"
       inkscape:connector-curvature="0"
       sodipodi:nodetypes="cssscscccc" />
    <path
       style="opacity:1;fill:none;fill-opacity:1;stroke:#ff0000;stroke-width:0.9375;stroke-linecap:round;stroke-linejoin:round;stroke-miterlimit:4;stroke-dasharray:none;stroke-opacity:1"
       d="m 342.84756,438.99089 c 0,0 35.91122,2.71788 49.90325,3.95098 13.99204,1.23311 41.86287,-0.84304 44.37942,4.49206 2.51655,5.33509 3.42251,9.76421 -0.27682,13.94169 -44.81523,20.74801 -21.21682,52.87325 10.15429,55.15028 20.38408,1.73642 37.79863,-6.44238 40.18935,-20.05693 2.39073,-13.61456 -10.98535,-26.6753 -13.36289,-30.95361 -2.172,-3.90844 -1.29083,-5.70623 1.5351,-14.78475 2.82593,-9.07852 40.23968,-0.0126 55.4145,1.79933 15.17482,1.81192 41.39731,7.19734 41.39731,7.19734"
       id="path4665"
       inkscape:connector-curvature="0"
       sodipodi:nodetypes="cssccsszsc" />
  </g>
</svg>
