<svg xmlns:dc="http://purl.org/dc/elements/1.1/" xmlns:cc="http://creativecommons.org/ns#" xmlns:rdf="http://www.w3.org/1999/02/22-rdf-syntax-ns#" xmlns:svg="http://www.w3.org/2000/svg" xmlns="http://www.w3.org/2000/svg" xmlns:sodipodi="http://sodipodi.sourceforge.net/DTD/sodipodi-0.dtd" xmlns:inkscape="http://www.inkscape.org/namespaces/inkscape" version="1.1" id="svg24" sodipodi:docname="logolostre.svg" viewBox="0 0 160 200" inkscape:version="0.92.0 r" viewport="0 0 1024px 1280px">
  <metadata id="metadata30">
    <rdf:RDF>
      <cc:Work rdf:about="">
        <dc:format>image/svg+xml</dc:format>
        <dc:type rdf:resource="http://purl.org/dc/dcmitype/StillImage"/>
        <dc:title/>
      </cc:Work>
    </rdf:RDF>
  </metadata>
  <defs id="defs28"/>
  <sodipodi:namedview pagecolor="#ffffff" bordercolor="#666666" borderopacity="1" objecttolerance="10" gridtolerance="10" guidetolerance="10" inkscape:pageopacity="0" inkscape:pageshadow="2" inkscape:window-width="1292" inkscape:window-height="792" id="namedview26" showgrid="false" scale-x="1" inkscape:zoom="0.59" inkscape:cx="256.0907" inkscape:cy="101.4183" inkscape:window-x="0" inkscape:window-y="34" inkscape:window-maximized="0" inkscape:current-layer="svg24"/>
  <g id="g4521" transform="translate(-10.230403,-7.2251235)">
    <g style="fill:none;stroke-width:0.2768046" id="g22" transform="matrix(0.2238691,0,0,0.2238691,17.101325,28.035353)">
      <rect style="stroke-width:0.2768046" id="rect2" height="806.09998" x="-76.389999" width="806.09998" y="-37.960999"/>
      <g style="stroke-width:6.58794975;stroke-linecap:round" id="g20" transform="rotate(1.5793292,113.10719,371.17736)">
        <circle style="stroke:#800000;stroke-width:6.58794975" id="circle4" r="59.643002" cx="383.10999" cy="449.82001" transform="matrix(0.99089,0.13465,-0.13465,0.99089,0,0)"/>
        <path style="stroke:#800000;stroke-width:6.58794975;stroke-linejoin:round" inkscape:connector-curvature="0" id="path6" d="m 258.12,409.86 c 24.286,-18.571 78.312,-22.998 109.74,-5.8556 0,0 -0.63385,-71.39 14.437,-97.369 42.16,-72.68 100.04,-79.81 115.76,-155.45 10.82,-52.038 -26.84,-115.94 -83.11,-134.78 -64.58,-21.63 -155.22,-8.8444 -197.29,14.273 -42.07,23.1174 -88.19,64.09 -87.93,137.18 0.21747,59.264 51.956,105.33 80.709,109.57 27.704,4.0817 40.144,-8.9618 40.144,-8.9618 0,0 -36.227,-9.2482 -42.674,-36.075 -6.4464,-26.827 -3.5134,-73.788 53.954,-118.57 48.467,-37.769 111.89,-31.722 124.82,-6.1057 17.119,33.922 -16.827,75.473 -29.044,91.114 -12.217,15.64 -57.239,49.89 -72.727,89.594 -13.656,35.011 -31.507,81.865 -26.792,121.43 z"/>
        <g style="stroke:#aad400;stroke-width:6.58794975;stroke-linejoin:round" id="g18">
          <path style="stroke-width:6.58794975" inkscape:connector-curvature="0" id="path8" d="m 150.79,392.57 c 0,0 78.891,80.246 76.004,79.664 -2.8869,-0.58241 -134.5,16.693 -134.5,16.693 z"/>
          <path style="stroke-width:6.58794975" inkscape:connector-curvature="0" id="path10" d="m 98.627,583.71 140.23,-29.73 c 0,0 -62.275,115.01 -64.831,113.73 -2.5557,-1.2774 -72.843,-82.725 -72.843,-82.725 0,0 -4.4722,-0.63827 -2.5557,-1.2774 z"/>
          <path style="stroke-width:6.58794975" inkscape:connector-curvature="0" id="path12" d="m 277.21,711.06 c 9.4467,2.2691 115.4,-8.6839 113.79,-11.446 -1.605,-2.7619 -64.144,-109.78 -66.059,-106.08 -1.9146,3.6988 -47.733,117.52 -47.733,117.52 z"/>
          <path style="stroke-width:6.58794975" inkscape:connector-curvature="0" id="path14" d="m 403.01,451.19 c 2.9408,-4.2908 89.395,-101.93 89.395,-101.93 l 57.519,83.722 z"/>
          <path style="stroke-width:6.58794975" inkscape:connector-curvature="0" id="path16" d="m 405.29,556.33 c 2.395,2.1137 102.39,95.906 102.39,95.906 0,0 63.245,-96.283 61.033,-99.087 -2.2118,-2.8041 -163.43,3.1812 -163.43,3.1812 z"/>
        </g>
      </g>
    </g>
  </g>
</svg>